<svg xmlns="http://www.w3.org/2000/svg" baseProfile="basic" viewBox="0 0 1587.4 623.62" xmlns:v="https://vecta.io/nano"><path d="M566.91 175.51h48.03v6.85l-1.95-.11-2.74-.04c-4.09 0-6.81.65-8.18 1.93-1.37 1.29-2.06 4.02-2.06 8.2v35.44h-6.92c-.48-2.77-1.24-4.91-2.27-6.42s-2.25-2.26-3.64-2.26c-.82 0-2.5.73-5.05 2.19l-4.11 2.26c-2.88 1.41-5.95 2.49-9.19 3.24a44.22 44.22 0 0 1-9.99 1.13 45.65 45.65 0 0 1-17.52-3.46c-5.62-2.31-10.58-5.6-14.86-9.88-5.19-5.2-9.19-11.53-12.01-18.99-2.81-7.46-4.22-15.57-4.22-24.32 0-8.46 1.33-16.31 4-23.55s6.55-13.56 11.65-18.96c4.42-4.67 9.29-8.2 14.6-10.61s10.97-3.61 16.98-3.61c2.5 0 4.94.2 7.32.58 2.38.39 4.96 1.05 7.75 1.97 1.78.54 4.18 1.57 7.21 3.1s5.17 2.3 6.42 2.3c1.39 0 2.58-.69 3.57-2.08.98-1.39 1.67-3.29 2.06-5.72h6.49l1.01 37.77h-6.49c-3.08-10.16-7.45-18-13.12-23.52s-12.23-8.28-19.69-8.28c-9.81 0-17.45 4.4-22.93 13.2s-8.22 21.12-8.22 36.97c0 15.9 2.96 28.34 8.87 37.33s14.04 13.49 24.37 13.49c6.68 0 11.9-2.16 15.65-6.49s5.62-10.38 5.62-18.16c0-5.25-1.14-9-3.42-11.26s-6.07-3.39-11.36-3.39h-1.66v-6.84zm74.21 34.05v-80.15c0-3.04-.99-5.14-2.96-6.31s-6.75-1.98-14.35-2.43v-6.13h51.85c13.84 0 24.69 2.45 32.52 7.36 7.84 4.91 11.75 11.64 11.75 20.21 0 7.12-2.4 12.92-7.21 17.4s-11.66 7.25-20.55 8.29v1.49c6.06 1.39 10.8 4.03 14.24 7.92 3.44 3.88 5.88 9.41 7.32 16.58.58 2.99 1.13 6.92 1.66 11.8.77 7.82 2.69 11.73 5.77 11.73 2.21 0 3.94-1.31 5.19-3.92s1.87-6.24 1.87-10.87h5.48v.89c0 7.72-1.64 13.73-4.9 18.04s-7.84 6.46-13.7 6.46c-6.63 0-11.43-2.2-14.39-6.61s-4.77-12.56-5.44-24.46c-.05-.7-.1-1.67-.15-2.91-.58-10.11-2-16.43-4.25-18.97-1.39-1.59-3.32-2.75-5.77-3.47s-5.6-1.08-9.45-1.08h-17.6v40.48c0 3.19.89 5.35 2.67 6.5s6.25 1.94 13.41 2.39v5.98H623.8v-5.9c7.69-.5 12.5-1.43 14.42-2.8 1.93-1.37 2.9-3.87 2.9-7.51zm16.94-79.69v33.91a91.57 91.57 0 0 0 5.59.41c1.75.08 3.33.11 4.72.11 11.49 0 19.81-1.77 24.95-5.3s7.72-9.16 7.72-16.88c0-6.97-2.37-12.29-7.1-15.95-4.74-3.66-11.57-5.49-20.52-5.49-6.83 0-11.09.61-12.8 1.83s-2.56 3.67-2.56 7.36zm118.01 60.32c0 9.85 2.32 17.37 6.96 22.57s11.33 7.79 20.08 7.79c9.66 0 16.99-3.06 21.99-9.18s7.5-15.12 7.5-27V129.4c0-3.08-.89-5.2-2.67-6.34s-6.18-1.94-13.2-2.39l-.07-6.12h39.87v6.12c-7.26.45-11.75 1.23-13.48 2.35s-2.6 3.25-2.6 6.38v54.68c0 14.52-3.44 25.46-10.31 32.82s-17.12 11.04-30.72 11.04c-13.12 0-23.16-3.24-30.11-9.73s-10.42-15.83-10.42-28.01v-60.94c0-2.98-.97-5.05-2.92-6.19s-6.67-1.94-14.17-2.39v-6.12h50.33v6.12c-6.87.25-11.27.96-13.2 2.13-1.92 1.17-2.89 3.32-2.89 6.45v60.93zm112.24 20.61v-81.1c0-3.1-.96-5.24-2.89-6.43-1.92-1.19-6.66-2.02-14.2-2.48v-6.24h52.13c13.99 0 24.99 2.77 32.99 8.3 8.01 5.53 12.01 13.12 12.01 22.77 0 10.41-3.97 18.2-11.9 23.38s-19.9 7.77-35.91 7.77c-2.7 0-5.29-.05-7.79-.15s-4.93-.25-7.28-.46v36.63c0 3.25.91 5.46 2.74 6.62 1.83 1.17 6.8 1.98 14.93 2.44l.07 6.09h-51.99v-6.09c7.79-.46 12.58-1.37 14.39-2.74 1.8-1.38 2.7-4.14 2.7-8.31zm17.16-79.87v38.23c1.44.1 2.93.18 4.47.23s3.53.08 5.99.08c11.87 0 20.43-1.94 25.67-5.82s7.86-10.17 7.86-18.85c0-7.71-2.45-13.64-7.35-17.78-4.91-4.14-11.95-6.21-21.13-6.21-6.88 0-11.18.66-12.91 1.98-1.73 1.31-2.6 4.02-2.6 8.14zm73.19 39.04c0-8.07 1.53-15.82 4.58-23.26s7.34-13.88 12.87-19.32c4.28-4.13 9.11-7.3 14.49-9.52 5.38-2.21 11.03-3.32 16.95-3.32 6.2 0 12.11 1.18 17.74 3.54s10.6 5.72 14.93 10.1c5.53 5.54 9.73 11.97 12.62 19.29s4.33 15.11 4.33 23.37c0 7.97-1.34 15.59-4 22.86-2.67 7.27-6.5 13.75-11.5 19.43-4.38 4.96-9.25 8.67-14.61 11.12s-11.26 3.68-17.7 3.68c-7.26 0-13.76-1.24-19.5-3.72-5.75-2.48-10.97-6.27-15.68-11.38-5-5.54-8.83-11.98-11.5-19.32-2.68-7.34-4.02-15.19-4.02-23.55zm18.97 1.17c0 16.82 2.52 29.45 7.57 37.88s12.6 12.65 22.64 12.65c10.1 0 17.69-4.19 22.79-12.58 5.1-8.38 7.64-20.87 7.64-37.44 0-16.82-2.55-29.5-7.64-38.03s-12.69-12.8-22.79-12.8c-9.9 0-17.41 4.25-22.53 12.76s-7.68 21.03-7.68 37.56zM1065.77 300l2.55.04c17.32.25 23.72 2.18 26.03 3.75 3.08 2.12 4.64 6.73 4.64 13.71v148.66c0 13.83-2.5 19.26-4.58 21.35-2.12 2.09-7.39 4.58-20.4 4.58h-8.72v16.49h103.09v-16.49h-2.62c-.96 0-2.19.05-3.82.16-1.45.09-2.53.14-3.2.14-9.63 0-16.03-1.89-19.02-5.61-2.16-2.7-4.74-9.73-4.74-27.92v-57.43h26.15c11.19 0 19.28 2.62 24.03 7.77 5.01 5.48 7.95 11.37 9.15 26.8l.76 10.68c1.84 24.94 5.42 40.69 10.95 48.15 3.47 4.59 7.58 8.04 12.21 10.26 4.56 2.19 10.03 3.3 16.26 3.3 12.62 0 22.23-4.75 28.55-14.14 6.07-9.05 9.14-22.68 9.14-40.5v-6.6h-14.85l-.05 2.54c-.2 10.77-1.3 18.67-3.27 23.47-2.22 5.34-5.29 5.96-7.41 5.96-4.92 0-9.42-7.93-12.67-22.33-2-9.01-3.88-16.14-5.57-21.21-4.7-14.15-10.61-19.91-17.81-26.92-5.2-5.06-11.99-9.26-20.29-12.54 18.05-3.52 32.33-9.36 42.55-17.44 12.38-9.76 18.65-22.74 18.65-38.56 0-17.67-6.9-31.7-20.5-41.7-13.09-9.67-31.41-14.64-54.42-14.83h-111l.23 16.41zm69.21 21.55c0-9.07 1.82-15.1 5.41-17.92 2.64-2.06 9.39-4.52 26.59-4.52 17.18 0 29.07 2.93 35.34 8.7 6.17 5.68 9.29 16.55 9.29 32.3 0 17.01-3.59 28.88-10.67 35.3-7.11 6.52-20.1 9.82-38.6 9.82h-27.37v-63.68zM594.34 488.01c-4.65-2.75-8.47-8.31-11.35-16.51l-65.94-187.47h-19.94L433.25 460.4c-4.3 11.81-9.38 20.22-15.09 24.97-5.62 4.61-13.27 6.95-22.73 6.95h-3.52v16.26h87.72v-16.26h-4.24c-9.26 0-16.08-1.35-20.27-4.02-3.89-2.49-5.79-6.28-5.79-11.58 0-1.42.27-3.32.82-5.7.5-2.39 1.31-5.27 2.34-8.32l8.66-24.75h72.61l14.29 40.71c.26.76.48 1.51.61 2.39.13.8.16 1.66.16 2.52 0 3.55-1.62 4.82-2.86 5.48-1.71.92-6.03 2.13-16.9 2.67l-14.4.71v16.13h105.79V492.3h-2.62c-10.79.02-18.7-1.43-23.49-4.29zm-126.5-69.33l29.63-85.11 29.59 85.11h-59.22zm-223.8 21.31l-50.19-156.41h-78.98v16.45h2.62c17.58 0 23.99 1.92 26.28 3.53 3.09 2.18 4.66 6.86 4.66 13.92v142.83c0 12.39-2.15 20.75-6.41 24.84-4.21 4.11-13 6.44-26.11 6.92l-2.52.1v16.4h86.96v-16.31l-2.43-.18c-12.17-.86-20.42-3.45-24.53-7.7-4.17-4.24-6.28-12.34-6.28-24.07V311.83l62.85 196.62h12.47l64.62-197.88v164.05c0 7.17-1.59 11.86-4.76 13.94-2.38 1.6-9.14 3.51-27.81 3.51h-2.62v16.49H377.6v-16.49h-2.62c-19.56 0-26.5-1.91-28.9-3.53-3.15-2.07-4.74-6.76-4.74-13.93V317.49c0-6.89 1.49-11.48 4.42-13.65 2.22-1.6 8.99-3.56 28.64-3.81l2.58-.04v-16.41h-81.46l-51.48 156.41zM850.28 300l2.58.04c18.1.25 24.54 2.21 26.75 3.8 3 2.19 4.52 7.19 4.52 14.87v154.45c0 7.64-1.61 12.85-4.64 15.04-2.34 1.64-8.86 3.67-26.65 4.04l-2.56.06v16.28h194.63l5.87-90.15-14.34-1.17-.31 2.47c-1.65 13.33-4.24 24.94-7.7 34.51-3.41 9.6-7.45 16.94-12.02 21.82-5.58 5.9-12.25 10.1-19.81 12.5-7.71 2.45-20.4 3.69-37.7 3.69-24.96 0-32.17-2.3-34.24-3.68-3.32-2.21-5-7.39-5-15.41v-73.83h2.27c17.11 0 29.56 3.52 37.01 10.47 7.52 6.92 11.9 19.04 13.02 36.02l.16 2.42h12.4V340.78l-12.48.24-.08 2.46c-.48 14.88-4.65 25.5-12.4 31.56-7.74 6.06-21.16 9.2-39.9 9.32v-65.65c0-7.85 1.71-12.92 5.07-15.08 2.53-1.64 10.83-3.59 35.94-3.59 24.49 0 41.65 4.5 50.99 13.38 9.37 8.96 15.55 26.33 18.36 51.65l.26 2.3h13.66l-1.72-83.78H850.28V300zm596.88 16.66c-8.95-10.73-19.13-18.93-30.24-24.37-11.13-5.48-23.36-8.26-36.36-8.26-12.33 0-24.44 2.94-35.99 8.74-11.42 5.78-21.84 14.2-30.99 25.05-8.96 10.71-15.82 22.89-20.37 36.21-4.61 13.34-6.95 27.64-6.95 42.49 0 17.1 2.3 32.38 6.84 45.43 4.57 13.18 11.78 25.35 21.39 36.15 8.83 10.2 18.81 17.93 29.64 22.97 10.83 5.08 22.9 7.65 35.88 7.65 12.73 0 24.9-2.81 36.17-8.35 11.21-5.57 21.43-13.83 30.38-24.6 8.71-10.69 15.54-23.02 20.29-36.65 4.74-13.54 7.15-27.87 7.15-42.6 0-15.25-2.33-29.91-6.94-43.56-4.55-13.72-11.26-25.93-19.9-36.3zm-26.64 153.51c-8.65 15.23-21.81 22.64-40.25 22.64-18.48 0-31.71-7.42-40.45-22.69-8.87-15.57-13.36-40.43-13.36-73.9 0-33.24 4.53-58 13.47-73.61 8.74-15.36 21.93-22.83 40.35-22.83 18.45 0 31.61 7.42 40.25 22.68 8.84 15.53 13.32 40.34 13.32 73.76-.01 33.6-4.49 58.48-13.33 73.95zM635.33 300l2.58.04c17.95.25 24.44 2.22 26.71 3.82 3.03 2.17 4.57 7.17 4.57 14.85v154.4c0 7.79-1.57 12.87-4.65 15.09-2.32 1.64-8.83 3.64-26.63 3.89l-2.58.04v16.46h95.7c20.72 0 37.84-2.27 50.91-6.74 13.22-4.54 25.22-12.18 35.67-22.7 9.76-9.73 17.45-22 22.86-36.49 5.34-14.43 8.05-30.07 8.05-46.5 0-16.98-2.97-33.2-8.83-48.21-5.87-15.08-14.17-27.7-24.66-37.49-10.05-9.44-21.55-16.35-34.17-20.56-11.94-4-27.08-6.1-44.96-6.29H635.33V300zm70.26 18.4c0-7.54 1.48-12.65 4.29-14.8 1.71-1.33 7.53-3.56 27.27-3.56 23.88 0 41.84 7.83 53.4 23.27 11.75 15.63 17.72 40.03 17.72 72.53 0 33.28-5.64 57.97-16.78 73.4-10.87 15.17-28.3 22.86-51.79 22.86-20.56 0-27.07-2.35-29.09-3.74-3.32-2.31-5-7.54-5-15.55V318.4z"/></svg>